# xmcd
#
# Track frame offsets: 
#        150
#        29411
#        61779
#        85629
#        109324
#        148566
#        167410
#        186123
#        230655
#        248274
#
# Disc length: 3957 seconds
#
# Revision: 2
# Processed by: cddbd v1.5.2PL0 Copyright (c) Steve Scherf et al.
# Submitted via: ExactAudioCopy v0.90b4
#
DISCID=750f730a
DTITLE=Various Artist - Cool Jazz - The Essential Album [CD2)
DYEAR=2003
DGENRE=Cool Jazz
TTITLE0=Herbie Hancock - Watermelon Man
TTITLE1=Art Blakey - Whisper Not
TTITLE2=Bob Brookmeyer - Misty
TTITLE3=Freddie Hubbard - Here's That Rainy Day
TTITLE4=Tommy Smith - Isfahan
TTITLE5=Lee Konitz - Luiza
TTITLE6=Chet Baker - Peace
TTITLE7=Dusko Goykovich - Soul Connection
TTITLE8=Brooklyn Funk Essentials - Take The L Train (To Brooklyn)
TTITLE9=Charles Mingus - Body and Soul
EXTD=YEAR: 2003
EXTT0=
EXTT1=
EXTT2=
EXTT3=
EXTT4=
EXTT5=
EXTT6=
EXTT7=
EXTT8=
EXTT9=
PLAYORDER=
